<?xml version="1.0" standalone="no"?>
<!DOCTYPE svg PUBLIC "-//W3C//DTD SVG 20010904//EN"
 "http://www.w3.org/TR/2001/REC-SVG-20010904/DTD/svg10.dtd">
<svg version="1.0" xmlns="http://www.w3.org/2000/svg"
 width="800.000000pt" height="600.000000pt" viewBox="0 0 800.000000 600.000000"
 preserveAspectRatio="xMidYMid meet">

<g transform="translate(0.000000,600.000000) scale(0.100000,-0.100000)"
fill="#000000" stroke="none">
<path d="M4340 4843 c-448 -256 -817 -467 -819 -468 -1 -2 20 -304 48 -672 28
-367 51 -675 51 -684 0 -9 17 -24 39 -33 l38 -18 108 61 c60 34 108 60 109 59
9 -26 47 -53 180 -133 l159 -96 329 188 c221 126 328 192 328 203 0 15 -145
111 -292 194 -21 11 -38 23 -38 26 0 3 172 102 381 220 l380 215 -5 50 c-3 28
-10 111 -16 185 -6 74 -19 252 -30 395 -11 143 -27 355 -35 470 -20 281 -18
272 -62 290 -19 8 -36 15 -37 14 0 0 -368 -210 -816 -466z m814 108 c-6 -5
-1373 -788 -1446 -828 -5 -2 -8 0 -8 6 0 5 327 197 727 425 627 358 774 439
727 397z m0 -143 c11 -69 29 -349 22 -355 -12 -12 -14 2 -25 152 -6 83 -14
169 -17 193 -6 50 12 59 20 10z m-78 -7 c-8 -12 -112 -71 -126 -71 -23 0 -6
17 48 47 56 32 89 42 78 24z m-656 -178 c0 -5 -80 -53 -177 -108 -97 -55 -203
-115 -234 -133 -32 -18 -60 -29 -63 -24 -5 9 439 269 462 271 6 1 12 -2 12 -6z
m334 -130 c3 -21 8 -84 12 -140 3 -57 9 -103 12 -103 3 0 49 25 103 55 101 57
113 62 107 44 -4 -12 -220 -138 -229 -133 -3 2 -9 52 -13 111 -3 59 -9 129
-13 156 -7 57 12 66 21 10z m-338 -299 c6 -73 13 -136 16 -139 3 -3 47 19 99
50 97 56 109 62 109 46 0 -10 -205 -131 -221 -131 -5 0 -9 6 -10 13 0 6 -6 76
-12 155 -7 79 -10 145 -8 148 11 11 17 -18 27 -142z m811 -89 c7 -77 9 -141 5
-143 -4 -2 -331 -189 -727 -417 -396 -227 -721 -412 -723 -410 -3 3 -5 21 -25
285 l-12 155 85 0 c99 1 158 23 266 101 118 83 161 91 254 44 65 -33 107 -37
148 -16 38 19 106 95 174 191 75 106 155 193 229 249 61 46 89 57 89 34 0 -22
46 -72 58 -64 6 4 17 33 24 66 13 65 18 69 98 66 l45 -1 12 -140z m-187 88
c-1 -27 -1 -27 -15 -9 -14 19 -12 36 6 36 5 0 9 -12 9 -27z m-1120 -51 c0 -7
-123 -82 -135 -82 -20 0 4 24 53 54 57 34 82 43 82 28z m-35 -81 c7 -12 -80
-64 -97 -59 -7 3 10 19 37 36 58 37 52 35 60 23z"/>
<path d="M4925 4005 c-129 -74 -146 -87 -126 -99 12 -8 283 145 289 163 8 25
-40 6 -163 -64z"/>
<path d="M4873 3907 c-169 -97 -222 -137 -182 -137 24 0 399 222 399 236 0 8
-6 14 -12 13 -7 0 -100 -51 -205 -112z"/>
<path d="M3846 3418 c-19 -27 -21 -79 -4 -96 19 -19 55 -14 72 10 19 27 21 79
4 96 -19 19 -55 14 -72 -10z m46 -53 c-6 -14 -16 -25 -22 -25 -13 0 -13 26 1
52 17 31 36 7 21 -27z"/>
<path d="M2610 3853 c-448 -256 -817 -467 -819 -469 -3 -2 15 -251 38 -552 23
-301 47 -605 52 -677 6 -71 11 -135 13 -140 2 -6 20 -16 39 -23 35 -13 39 -12
141 47 58 34 107 61 109 61 3 0 7 -8 10 -17 2 -10 77 -62 166 -117 l161 -98
330 188 c210 120 330 194 330 204 0 9 -66 55 -165 115 -91 55 -165 102 -165
105 0 3 171 102 380 220 380 215 380 215 375 245 -2 17 -7 75 -10 130 -3 55
-10 147 -15 205 -14 160 -29 348 -50 640 -29 383 -25 364 -66 384 -19 9 -36
16 -37 15 -1 0 -369 -210 -817 -466z m819 103 c-14 -11 -769 -436 -774 -436
-29 0 49 49 385 240 212 120 387 214 389 209 1 -6 1 -12 0 -13z m-339 -93 c0
-10 -306 -183 -322 -183 -22 0 4 17 157 104 149 85 165 93 165 79z m305 -3 c3
-5 -12 -21 -34 -35 -47 -29 -51 -30 -51 -12 0 7 17 23 38 35 44 25 39 24 47
12z m5 -49 c0 -10 -65 -51 -81 -51 -19 0 -8 19 24 39 34 22 57 27 57 12z m0
-43 c0 -13 -53 -48 -71 -48 -19 0 -8 19 24 39 37 24 47 26 47 9z m60 -134 c0
-15 -17 -32 -57 -57 -75 -46 -193 -146 -387 -328 -159 -150 -301 -258 -316
-243 -5 5 -10 60 -12 123 l-3 115 380 216 c245 140 383 213 387 206 4 -6 8
-20 8 -32z m-538 -82 c4 -24 3 -54 -2 -66 -9 -25 -173 -126 -203 -126 -23 0
-35 86 -16 118 16 28 176 124 199 120 9 -2 17 -20 22 -46z m-342 -91 c0 -14
-170 -105 -178 -96 -4 4 -2 9 3 12 6 2 44 23 85 48 79 46 90 51 90 36z m860
-169 c0 -12 -378 -224 -392 -220 -11 4 366 227 385 228 4 0 7 -4 7 -8z m-9
-130 c-54 -38 -140 -82 -145 -74 -6 10 132 92 154 91 10 0 7 -6 -9 -17z
m-1095 -71 c-10 -15 -118 -73 -124 -66 -4 4 0 11 8 15 8 5 33 20 55 34 41 25
71 33 61 17z"/>
<path d="M5584 3943 c5 -33 5 -33 -34 -33 -74 0 -191 -75 -239 -154 -35 -56
-23 -144 36 -278 25 -56 25 -59 9 -98 -9 -22 -16 -54 -16 -70 0 -21 -8 -35
-26 -47 -22 -14 -25 -22 -20 -52 3 -20 10 -67 15 -104 7 -53 16 -77 38 -105
48 -60 110 -102 149 -102 42 0 51 17 31 57 -8 15 -18 42 -21 59 -7 30 -5 32
26 37 22 3 48 -3 79 -19 108 -54 246 -68 369 -36 l65 17 42 85 c53 105 72 178
80 295 7 105 -13 192 -52 230 l-23 24 24 3 c37 5 29 23 -11 26 l-35 3 0 52 c0
103 -59 151 -184 147 -104 -4 -107 -3 -104 23 4 31 -14 35 -29 6 -21 -41 -97
-22 -151 40 l-23 26 5 -32z m-110 -596 c17 -23 21 -43 21 -104 0 -67 -3 -77
-24 -94 -21 -17 -26 -18 -45 -6 -12 8 -28 27 -36 43 -20 38 -20 155 -1 178 20
24 60 16 85 -17z"/>
<path d="M5405 3347 c-31 -44 -8 -176 33 -192 39 -15 57 104 26 170 -20 43
-39 50 -59 22z"/>
<path d="M7679 3114 c-174 -68 -507 -202 -740 -297 l-424 -173 -17 69 c-21 81
-44 122 -98 171 -50 45 -104 72 -182 92 -90 23 -150 14 -191 -29 -39 -42 -83
-56 -302 -98 -220 -42 -320 -90 -457 -218 -38 -35 -75 -61 -87 -61 -30 0 -132
37 -149 54 -17 16 -8 51 14 60 8 3 28 -1 44 -9 48 -25 70 -20 70 16 0 52 -88
119 -155 119 -37 0 -65 17 -65 40 0 26 28 39 70 32 l35 -5 -19 22 c-24 26 -52
27 -93 1 -28 -17 -33 -25 -33 -59 0 -31 7 -45 30 -67 22 -22 31 -40 36 -81 3
-29 15 -64 25 -77 16 -20 89 -54 172 -80 18 -6 17 -7 -2 -34 -25 -36 -282
-512 -328 -609 l-35 -72 -104 -58 c-57 -32 -104 -60 -104 -64 0 -6 130 -49
148 -49 7 0 24 25 39 55 15 30 30 55 33 55 3 0 14 -13 23 -30 40 -68 162 -140
274 -162 32 -7 59 -13 60 -13 4 -2 -113 -259 -128 -283 -7 -11 -30 -30 -52
-42 -31 -18 -51 -21 -100 -18 -57 3 -84 15 -340 151 -153 81 -281 147 -284
147 -6 0 -298 -168 -979 -562 l-489 -282 -60 -1 c-60 0 -60 0 -390 191 -181
105 -340 196 -353 203 -18 10 -53 5 -200 -28 -485 -109 -1044 -211 -1554 -282
l-238 -34 0 -357 0 -358 4000 0 4000 0 0 1620 c0 891 -1 1620 -2 1619 -2 0
-145 -57 -319 -125z"/>
<path d="M3860 2217 c-457 -346 -505 -385 -505 -411 0 -27 8 -32 215 -123 118
-52 218 -95 221 -96 4 -1 37 20 74 48 57 43 64 51 50 61 -9 7 -40 15 -68 19
-82 10 -89 13 -85 43 3 26 4 27 76 27 39 0 72 3 72 7 0 18 -45 29 -89 23 -38
-5 -52 -3 -70 12 -20 17 -22 23 -12 41 9 18 21 22 59 22 l47 1 -50 17 c-36 12
-51 23 -53 38 -5 33 20 47 62 36 30 -9 37 -7 48 9 9 14 30 21 74 25 l60 6 38
-43 38 -44 -7 52 c-6 47 -5 52 16 64 20 10 25 9 41 -11 10 -12 18 -28 18 -36
0 -7 9 -38 21 -69 15 -40 25 -55 35 -51 8 3 151 109 319 236 271 205 305 234
305 259 0 26 -10 31 -207 119 -115 50 -215 93 -223 96 -9 4 -203 -137 -520
-377z"/>
<path d="M2778 1550 c-78 -49 -98 -66 -98 -85 0 -19 34 -44 200 -150 110 -70
208 -129 217 -131 11 -3 59 21 116 56 76 49 97 66 97 84 0 19 -36 46 -201 151
-110 70 -208 129 -217 131 -9 3 -61 -23 -114 -56z"/>
</g>
</svg>
